name C:\Users\u0101727\Documents\MyRepositories\upper-imu-dc\OpenSim\subject0\MA\MA_Splines\angle_in_n3_dof9_0.mot
datacolumns 10
datarows 18
range 25.01000000 25.18000000
endheader 
time	clav_prot	clav_elev	scapula_abduction	scapula_elevation	scapula_upward_rot	scapula_winging	plane_elv	shoulder_elv	axial_rot	
         25.01000000	        -30.62585626	         16.86370047	         -9.79969714	          7.08700750	          8.23102828	         -2.83128850	        -38.88248977	         47.35717561	        -37.11132463	
         25.02000000	        -16.90593547	         16.86370047	         -9.79969714	          7.08700750	          8.23102828	         -2.83128850	        -38.88248977	         47.35717561	        -37.11132463	
         25.03000000	        -44.34577705	         -7.65248351	         11.28790885	          7.08700750	          8.23102828	         -2.83128850	        -38.88248977	         47.35717561	        -37.11132463	
         25.04000000	        -30.62585626	         -7.65248351	         11.28790885	          7.08700750	          8.23102828	         -2.83128850	        -38.88248977	         47.35717561	        -37.11132463	
         25.05000000	        -16.90593547	         -7.65248351	         11.28790885	          7.08700750	          8.23102828	         -2.83128850	        -38.88248977	         47.35717561	        -37.11132463	
         25.06000000	        -44.34577705	          4.60560848	         11.28790885	          7.08700750	          8.23102828	         -2.83128850	        -38.88248977	         47.35717561	        -37.11132463	
         25.07000000	        -30.62585626	          4.60560848	         11.28790885	          7.08700750	          8.23102828	         -2.83128850	        -38.88248977	         47.35717561	        -37.11132463	
         25.08000000	        -16.90593547	          4.60560848	         11.28790885	          7.08700750	          8.23102828	         -2.83128850	        -38.88248977	         47.35717561	        -37.11132463	
         25.09000000	        -44.34577705	         16.86370047	         11.28790885	          7.08700750	          8.23102828	         -2.83128850	        -38.88248977	         47.35717561	        -37.11132463	
         25.10000000	        -30.62585626	         16.86370047	         11.28790885	          7.08700750	          8.23102828	         -2.83128850	        -38.88248977	         47.35717561	        -37.11132463	
         25.11000000	        -16.90593547	         16.86370047	         11.28790885	          7.08700750	          8.23102828	         -2.83128850	        -38.88248977	         47.35717561	        -37.11132463	
         25.12000000	        -44.34577705	         -7.65248351	        -30.88730313	         -7.82036939	         46.86245639	         -2.83128850	        -38.88248977	         47.35717561	        -37.11132463	
         25.13000000	        -30.62585626	         -7.65248351	        -30.88730313	         -7.82036939	         46.86245639	         -2.83128850	        -38.88248977	         47.35717561	        -37.11132463	
         25.14000000	        -16.90593547	         -7.65248351	        -30.88730313	         -7.82036939	         46.86245639	         -2.83128850	        -38.88248977	         47.35717561	        -37.11132463	
         25.15000000	        -44.34577705	          4.60560848	        -30.88730313	         -7.82036939	         46.86245639	         -2.83128850	        -38.88248977	         47.35717561	        -37.11132463	
         25.16000000	        -30.62585626	          4.60560848	        -30.88730313	         -7.82036939	         46.86245639	         -2.83128850	        -38.88248977	         47.35717561	        -37.11132463	
         25.17000000	        -16.90593547	          4.60560848	        -30.88730313	         -7.82036939	         46.86245639	         -2.83128850	        -38.88248977	         47.35717561	        -37.11132463	
         25.18000000	        -44.34577705	         16.86370047	        -30.88730313	         -7.82036939	         46.86245639	         -2.83128850	        -38.88248977	         47.35717561	        -37.11132463	
